<svg width="32" height="32" viewBox="0 0 32 32" fill="none" xmlns="http://www.w3.org/2000/svg">
<rect width="32" height="32" rx="16" fill="#F1F5F9"/>
<circle cx="27" cy="5" r="4" fill="#F43F5E" stroke="white" stroke-width="2"/>
<path d="M23.9999 17.5001C23.9999 16.5131 23.5709 15.6031 22.8529 14.8611C22.1239 18.3481 18.6599 21.0001 14.4999 21.0001C14.3969 21.0001 14.2979 20.9821 14.1949 20.9791C15.2309 21.6171 16.5559 22.0001 17.9999 22.0001C18.4489 22.0001 18.8859 21.9601 19.3069 21.8901L22.9999 24.0001V20.0001H22.9879C23.6269 19.2851 23.9999 18.4251 23.9999 17.5001Z" fill="#94A3B8"/>
<path d="M14.5 8C10.91 8 8 10.462 8 13.5C8 14.575 8.37 15.574 9 16.422V20L11.699 18.458C12.548 18.802 13.496 19 14.5 19C18.09 19 21 16.538 21 13.5C21 10.462 18.09 8 14.5 8Z" fill="#64748B"/>
</svg>
